<mxfile host="app.diagrams.net" modified="2023-07-11T05:47:45.409Z" agent="Mozilla/5.0 (Macintosh; Intel Mac OS X 10_15_7) AppleWebKit/537.36 (KHTML, like Gecko) Chrome/114.0.0.0 Safari/537.36 Edg/114.0.1823.67" version="21.6.1" etag="bSP6J9qiGIk1iYaBXgoz" type="github">
  <diagram name="페이지-1" id="hHr3YbU_uJ07CuFb9-bQ">
    <mxGraphModel>
      <root>
        <mxCell id="0" />
        <mxCell id="1" parent="0" />
      </root>
    </mxGraphModel>
  </diagram>
</mxfile>
